<svg width="13" height="12" viewBox="0 0 13 12" fill="none" xmlns="http://www.w3.org/2000/svg">
<g clip-path="url(#clip0)">
<path d="M12.9998 5.99306C12.9998 9.28711 10.077 11.9962 6.50654 12C2.93608 12.0038 0.00247192 9.30349 0.00247192 6.00693C0.00247192 2.71036 2.91982 0.00251007 6.49163 0.00251007C10.0634 0.00251007 12.9943 2.69649 12.9998 5.99306ZM12.1868 5.9855C12.1732 4.59085 11.5671 3.25784 10.5009 2.27744C9.43463 1.29704 7.99481 0.748869 6.4957 0.752589C3.37239 0.752589 0.81819 3.10242 0.80464 5.98423C0.806759 6.6798 0.95659 7.36811 1.24553 8.00963C1.53446 8.65115 1.9568 9.23324 2.48829 9.72243C3.01977 10.2116 3.64992 10.5983 4.34253 10.8602C5.03513 11.1221 5.77654 11.2541 6.52415 11.2487C8.0237 11.245 9.46076 10.6894 10.5215 9.7033C11.5822 8.71717 12.1804 7.3806 12.1854 5.9855H12.1868Z" fill="#8E8E8E"/>
<path d="M4.33332 6.01325C4.33332 5.39049 4.31435 4.76522 4.33332 4.14247C4.36178 3.40373 4.91191 3.10874 5.61381 3.4655C6.79674 4.06683 7.97289 4.6795 9.13685 5.31738C9.97154 5.77751 9.94986 6.29437 9.09484 6.76081C8.0298 7.34154 6.95753 7.91135 5.87804 8.47023C4.94985 8.94675 4.3401 8.6089 4.33332 7.63569C4.32926 7.09487 4.33197 6.55784 4.33332 6.01325ZM5.16259 7.94454C6.34687 7.31422 7.4756 6.73685 8.57045 6.11032C8.84959 5.95148 8.50677 5.8481 8.39159 5.78507C7.65717 5.38167 6.91688 4.98877 6.17072 4.60638C5.855 4.44502 5.57722 4.18785 5.16259 4.1702V7.94454Z" fill="#8E8E8E"/>
</g>
<defs>
<clipPath id="clip0">
<rect width="13" height="12" fill="white"/>
</clipPath>
</defs>
</svg>
