<svg width="13" height="12" viewBox="0 0 13 12" fill="none" xmlns="http://www.w3.org/2000/svg">
<g clip-path="url(#clip0)">
<path d="M6.5072 11.9962C4.96534 11.9962 3.42348 11.9962 1.88163 11.9962C0.666116 11.9962 0.0134239 11.3864 0.0106583 10.2595C0.00328318 7.83836 0.00328318 5.41726 0.0106583 2.99617C0.0106583 1.90654 0.671649 1.29934 1.84014 1.28261C2.27642 1.26094 2.71368 1.26309 3.14968 1.28905C4.31264 1.40354 5.33179 1.23502 6.05363 0.259888C6.3302 -0.10675 6.68974 -0.082308 6.95662 0.271466C7.64804 1.1797 8.59251 1.40097 9.72229 1.28647C10.2502 1.24959 10.7802 1.24744 11.3084 1.28004C12.3179 1.3122 12.9941 1.92327 13.001 2.8598C13.0176 5.36409 13.0176 7.86966 13.001 10.3765C13.001 11.3761 12.3096 11.9807 11.2033 11.9897C9.62826 12.0052 8.06427 11.9962 6.5072 11.9962ZM12.1685 6.61366C12.1685 5.40183 12.1754 4.19128 12.1685 2.97944C12.1685 2.31692 11.8795 2.06092 11.1604 2.05063C10.4414 2.04033 9.73058 2.01203 9.01981 2.05834C8.15415 2.11366 7.42263 1.9297 6.88471 1.27104C6.62336 0.949425 6.3786 0.967436 6.12416 1.27747C5.60283 1.91169 4.90588 2.11752 4.0582 2.05834C3.36679 2.00946 2.67537 2.04548 1.98395 2.04934C1.09618 2.04934 0.843125 2.28733 0.841742 3.11195C0.841742 5.47129 0.841742 7.82978 0.841742 10.1874C0.832761 10.3162 0.837389 10.4454 0.855567 10.5734C0.88146 10.7442 0.968852 10.9019 1.10347 11.0205C1.23809 11.1392 1.41198 11.212 1.59676 11.2269C2.06969 11.2963 2.09735 10.9606 2.18862 10.6801C2.59379 9.42841 3.54379 8.75817 4.98747 8.73116C5.90844 8.71443 6.83079 8.75817 7.75314 8.72215C9.33648 8.6604 10.5866 9.49402 10.8562 10.8126C10.9613 11.3272 11.3388 11.3118 11.7454 11.1214C12.1298 10.9413 12.1768 10.6068 12.1754 10.2505C12.1575 9.03733 12.1616 7.8255 12.1616 6.61366H12.1685ZM6.46572 11.2294C7.45444 11.2294 8.44317 11.214 9.4319 11.2294C9.98503 11.2423 10.0791 11.003 9.90344 10.5978C9.7763 10.2731 9.54463 9.99277 9.24001 9.79502C8.93539 9.59727 8.57263 9.49171 8.20117 9.49273C7.05158 9.45414 5.90198 9.45414 4.75239 9.49273C3.95173 9.51718 3.382 9.91984 3.05012 10.6029C2.83855 11.039 2.96853 11.2359 3.49954 11.2282C4.48135 11.2192 5.47008 11.2282 6.45881 11.2294H6.46572Z" fill="#8E8E8E"/>
<path d="M6.44536 7.93868C6.1016 7.94046 5.76094 7.87819 5.44346 7.75553C5.12598 7.63287 4.83812 7.45232 4.59686 7.22451C4.35559 6.9967 4.1658 6.72625 4.03868 6.42911C3.91156 6.13197 3.84969 5.81416 3.85671 5.49442C3.86029 5.16977 3.933 4.84899 4.07064 4.55063C4.20828 4.25227 4.40811 3.98225 4.65859 3.75616C4.90907 3.53008 5.20523 3.35242 5.52995 3.23345C5.85468 3.11448 6.20153 3.05656 6.55046 3.06303C7.24301 3.07752 7.90178 3.34428 8.3851 3.80595C8.86842 4.26761 9.13768 4.88729 9.13497 5.53173C9.13497 6.91595 7.96924 7.9554 6.44536 7.93868ZM6.49653 7.15909C6.73659 7.16051 6.97452 7.11718 7.19629 7.03167C7.41806 6.94615 7.61917 6.82018 7.78776 6.66118C7.95634 6.50219 8.08899 6.31339 8.17788 6.10593C8.26676 5.89847 8.31008 5.67655 8.30527 5.45326C8.3035 5.23515 8.2551 5.01955 8.16289 4.81902C8.07067 4.61849 7.93649 4.43703 7.76815 4.28522C7.59981 4.1334 7.40069 4.01426 7.18237 3.93474C6.96406 3.85523 6.73091 3.81691 6.49653 3.82204C6.25637 3.81829 6.0179 3.85988 5.79551 3.94429C5.57313 4.02869 5.37144 4.15417 5.20264 4.31312C5.03384 4.47208 4.90143 4.66123 4.81341 4.86913C4.7254 5.07703 4.6836 5.29937 4.69055 5.52272C4.69252 5.74079 4.74093 5.95633 4.83297 6.1569C4.92501 6.35746 5.05886 6.53906 5.22679 6.69122C5.39471 6.84337 5.59338 6.96306 5.81132 7.04337C6.02926 7.12368 6.26215 7.16301 6.49653 7.15909Z" fill="#8E8E8E"/>
</g>
<defs>
<clipPath id="clip0">
<rect width="13" height="12" fill="white"/>
</clipPath>
</defs>
</svg>
