<svg width="13" height="12" viewBox="0 0 13 12" fill="none" xmlns="http://www.w3.org/2000/svg">
<g clip-path="url(#clip0)">
<path d="M0.0205992 5.99061C0.0205992 5.12066 -0.0267364 4.24821 0.0300676 3.38202C0.165315 1.44157 1.48669 0.156702 3.58979 0.0639409C5.52112 -0.0200453 7.46463 -0.0225524 9.39596 0.0639409C11.4882 0.161716 12.8285 1.40271 12.9313 3.32311C13.026 5.07804 13.0192 6.84426 12.9313 8.60045C12.8421 10.4632 11.656 11.6352 9.61101 11.8383C7.52819 12.0433 5.42781 12.0433 3.34499 11.8383C1.28787 11.6352 0.142325 10.4381 0.0233068 8.529C-0.0307922 7.68287 0.0138385 6.83173 0.0138385 5.98309L0.0205992 5.99061ZM6.48814 3.75432C4.77591 3.75432 3.06502 3.75432 1.34873 3.75432C1.03225 3.75432 0.791512 3.74179 0.799627 4.15796C0.825324 5.56567 0.772578 6.97588 0.823972 8.38234C0.884834 10.0533 1.77071 11.0147 3.54786 11.1551C5.50076 11.3125 7.4647 11.3125 9.4176 11.1551C11.2475 11.0035 12.1117 10.0057 12.151 8.25949C12.1794 6.93451 12.1347 5.60828 12.1699 4.28456C12.1821 3.82326 11.9954 3.74555 11.5491 3.75056C9.86528 3.76686 8.17603 3.75432 6.48814 3.75432ZM8.58989 3.00221C8.1287 2.25009 7.73242 1.61204 7.34155 0.967732C7.31631 0.910226 7.27334 0.860892 7.21801 0.82589C7.16269 0.790888 7.09746 0.771771 7.03048 0.770929H3.9793C4.43914 1.52304 4.84218 2.15607 5.22763 2.80289C5.33448 2.9834 5.48866 3.00221 5.6753 3.00221C6.59769 3.00471 7.52008 3.00597 8.58989 3.00597V3.00221ZM8.24095 0.82483C8.3898 1.03035 8.51792 1.24813 8.6237 1.47541C9.0849 2.80415 10.0668 3.2153 11.5207 3.02602C12.0793 2.95332 12.0766 2.81794 11.9102 2.42934C11.3814 1.20716 10.0925 0.621759 8.24095 0.82859V0.82483ZM0.957866 2.74648C0.903767 3.04984 1.15262 2.99719 1.34332 2.99719C2.19538 2.99719 3.04879 2.98967 3.90221 3.00346C4.26738 3.00346 4.4175 2.94705 4.18758 2.59857C3.87381 2.12223 3.58302 1.63335 3.28818 1.14699C3.19486 0.994057 3.10019 0.886254 2.87432 0.90631C2.15345 0.980268 0.990326 2.08212 0.957866 2.75025V2.74648Z" fill="#8E8E8E"/>
<path d="M4.8662 7.33188C4.8662 6.83674 4.84862 6.3416 4.8662 5.84771C4.88648 5.39518 5.15292 5.25479 5.58571 5.47917C6.50134 5.95426 7.41561 6.43436 8.31771 6.93201C8.79784 7.19775 8.80325 7.51239 8.33124 7.77438C7.42959 8.27579 6.51892 8.76007 5.59924 9.22721C5.14075 9.46037 4.88648 9.31245 4.8662 8.81606C4.84591 8.31966 4.86484 7.82703 4.8662 7.33188Z" fill="#8E8E8E"/>
</g>
<defs>
<clipPath id="clip0">
<rect width="13" height="12" fill="white"/>
</clipPath>
</defs>
</svg>
