<svg width="11" height="12" viewBox="0 0 11 12" fill="none" xmlns="http://www.w3.org/2000/svg">
<path d="M5.4549 11.9893C3.86742 11.9893 2.27994 11.9718 0.701015 12C0.162494 12.0094 -0.00236488 11.7906 0.00129853 11.22C0.0167663 7.73998 0.0167663 4.26046 0.00129853 0.781385C0.00129853 0.213473 0.16005 -0.00268337 0.699793 1.79119e-06C3.90975 0.020588 7.11971 0.020588 10.3297 1.79119e-06C10.8389 1.79119e-06 11.0001 0.205417 10.9989 0.745135C10.9842 4.24659 10.9842 7.74849 10.9989 11.2508C10.9989 11.8563 10.7754 12.004 10.2662 11.9973C8.66526 11.9745 7.05947 11.9893 5.4549 11.9893ZM3.42293 2.25688C3.42293 0.808235 3.42293 0.808236 2.11143 0.808236H2.05159C0.73887 0.808236 0.73887 0.808236 0.73887 2.25554C0.73887 3.73238 0.73887 3.73238 2.08212 3.73238C3.42537 3.73238 3.42293 3.73641 3.42293 2.25688ZM5.51839 3.73372C6.83966 3.73372 6.83966 3.73372 6.83966 2.2985V2.23137C6.83966 0.80555 6.83967 0.805551 5.50741 0.805551C4.15561 0.805551 4.15561 0.805551 4.15561 2.28239C4.15561 3.75923 4.15561 3.73641 5.52084 3.73641L5.51839 3.73372ZM10.2564 2.32938C10.2564 0.805551 10.2564 0.805551 8.8924 0.805551C7.57235 0.805551 7.57235 0.805551 7.57235 2.24346C7.57235 3.73372 7.57235 3.73372 8.96567 3.73372C10.2613 3.73641 10.2613 3.7364 10.2613 2.33206L10.2564 2.32938ZM3.41804 5.97717C3.41804 4.53256 3.41804 4.53256 2.10288 4.53256H2.04304C0.733984 4.53256 0.733981 4.53256 0.733981 5.98389C0.733981 7.46073 0.73398 7.46073 2.07723 7.46073C3.42048 7.46073 3.42293 7.46341 3.42293 5.97986L3.41804 5.97717ZM6.83723 6.02282C6.83723 4.53256 6.83722 4.53256 5.50374 4.53256C4.17026 4.53256 4.15316 4.53256 4.15316 6.0094C4.15316 7.48623 4.15317 7.4661 5.51718 7.4661C6.84211 7.46341 6.84211 7.46341 6.84211 6.02551L6.83723 6.02282ZM10.2564 5.97449C10.2564 4.53256 10.2564 4.53256 8.9388 4.53256H8.87774C7.57235 4.53256 7.57235 4.53256 7.57235 5.98657C7.57235 7.44059 7.57235 7.46341 8.9156 7.46341C10.2588 7.46341 10.2613 7.46341 10.2613 5.97717L10.2564 5.97449ZM2.09067 11.1877C3.42293 11.1877 3.42293 11.1877 3.42293 9.76325V9.69747C3.42293 8.25956 3.42292 8.25956 2.10166 8.25956C0.738867 8.25956 0.73887 8.25956 0.73887 9.71761C0.73887 11.1756 0.736423 11.1904 2.09311 11.1904L2.09067 11.1877ZM4.15561 9.66659C4.15561 11.1904 4.15561 11.1904 5.51962 11.1904C6.83966 11.1904 6.83966 11.1904 6.83966 9.75251C6.83966 8.26225 6.83967 8.26225 5.44635 8.26225C4.15561 8.26225 4.15561 8.26225 4.15561 9.66659ZM8.97055 8.26225C7.57235 8.26225 7.57235 8.26225 7.57235 9.74714C7.57235 11.1904 7.57235 11.1904 8.88751 11.1904C10.2564 11.1904 10.2564 11.1904 10.2564 9.67196C10.2613 8.26225 10.2613 8.26225 8.97299 8.26225H8.97055Z" fill="#262626"/>
</svg>
